<svg width="25" height="25" viewBox="0 0 25 25" fill="none" xmlns="http://www.w3.org/2000/svg">
<path d="M5.86719 15.3984H4.36719C4.16008 15.3984 3.99219 15.5663 3.99219 15.7734V22.5234C3.99219 22.7305 4.16008 22.8984 4.36719 22.8984H5.86719C6.07429 22.8984 6.24219 22.7305 6.24219 22.5234V15.7734C6.24219 15.5663 6.07429 15.3984 5.86719 15.3984Z" stroke="white" stroke-width="1.5" stroke-linecap="round" stroke-linejoin="round"/>
<path d="M16.3672 10.8984H14.8672C14.6601 10.8984 14.4922 11.0663 14.4922 11.2734V22.5234C14.4922 22.7305 14.6601 22.8984 14.8672 22.8984H16.3672C16.5743 22.8984 16.7422 22.7305 16.7422 22.5234V11.2734C16.7422 11.0663 16.5743 10.8984 16.3672 10.8984Z" stroke="white" stroke-width="1.5" stroke-linecap="round" stroke-linejoin="round"/>
<path d="M21.6172 5.64844H20.1172C19.9101 5.64844 19.7422 5.81633 19.7422 6.02344V22.5234C19.7422 22.7305 19.9101 22.8984 20.1172 22.8984H21.6172C21.8243 22.8984 21.9922 22.7305 21.9922 22.5234V6.02344C21.9922 5.81633 21.8243 5.64844 21.6172 5.64844Z" stroke="white" stroke-width="1.5" stroke-linecap="round" stroke-linejoin="round"/>
<path d="M11.1172 1.89844H9.61719C9.41008 1.89844 9.24219 2.06633 9.24219 2.27344V22.5234C9.24219 22.7305 9.41008 22.8984 9.61719 22.8984H11.1172C11.3243 22.8984 11.4922 22.7305 11.4922 22.5234V2.27344C11.4922 2.06633 11.3243 1.89844 11.1172 1.89844Z" stroke="white" stroke-width="1.5" stroke-linecap="round" stroke-linejoin="round"/>
</svg>
