<svg width="14" height="19" viewBox="0 0 14 19" fill="none" xmlns="http://www.w3.org/2000/svg">
<path d="M13.1884 9.96789C12.747 9.3971 12.0809 9.00504 11.1902 8.79195C12.3245 8.21336 12.823 7.23135 12.6861 5.84577C12.6404 5.34333 12.5015 4.90788 12.2692 4.53877C12.0368 4.16959 11.7231 3.8728 11.327 3.64827C10.9312 3.42347 10.5008 3.25233 10.0366 3.13435C9.57239 3.01637 9.03939 2.9307 8.43801 2.87747V0H6.67972V2.79752C6.37525 2.79752 5.91092 2.80512 5.28678 2.82036V0H3.52825V2.87747C3.27697 2.88511 2.90783 2.88899 2.42066 2.88899L0 2.87747V4.75014H1.26736C1.84591 4.75014 2.18466 5.00902 2.2836 5.52658V8.80375C2.35983 8.80375 2.42066 8.80767 2.46638 8.81527H2.2836V13.4053C2.22277 13.7935 2.00205 13.9877 1.62139 13.9877H0.354105L7.99436e-05 16.0773H2.2838C2.42846 16.0773 2.63767 16.0793 2.91183 16.0827C3.18582 16.0865 3.39127 16.0885 3.52833 16.0885V19.0001H5.28714V16.1227C5.60677 16.1305 6.0711 16.1342 6.68008 16.1342V19.0001H8.43841V16.0885C9.06275 16.0581 9.6165 16.0013 10.0997 15.9172C10.5831 15.8332 11.0456 15.7021 11.4871 15.5231C11.9284 15.3443 12.2976 15.1215 12.5944 14.8551C12.8914 14.5889 13.1367 14.25 13.3311 13.8388C13.5249 13.4277 13.6488 12.9519 13.7019 12.4113C13.8013 11.3535 13.6299 10.5389 13.1884 9.96789ZM5.32097 4.8754C5.37428 4.8754 5.52462 4.87348 5.77202 4.86964C6.01954 4.86572 6.22499 4.86196 6.38865 4.85812C6.55234 4.85436 6.77311 4.86388 7.05106 4.88672C7.3289 4.90955 7.56294 4.94007 7.75319 4.97806C7.94344 5.01606 8.15297 5.07889 8.38114 5.16644C8.6097 5.2539 8.79227 5.36052 8.92913 5.48611C9.06627 5.61169 9.18233 5.77162 9.27732 5.96575C9.37258 6.15984 9.42017 6.38249 9.42017 6.63365C9.42017 6.84681 9.38598 7.04098 9.31755 7.21616C9.24924 7.39121 9.14622 7.53779 9.00936 7.65577C8.87246 7.77379 8.73136 7.87665 8.5867 7.96412C8.44221 8.05159 8.25743 8.12206 8.03295 8.17529C7.8085 8.2286 7.6125 8.27047 7.44512 8.30087C7.27763 8.33134 7.06834 8.35234 6.8171 8.3637C6.56582 8.37506 6.37545 8.38281 6.24611 8.38657C6.11665 8.39033 5.93972 8.39033 5.71507 8.38657C5.49039 8.38281 5.35925 8.38081 5.32109 8.38081V4.87536H5.32097V4.8754ZM10.1226 12.6513C10.0501 12.8264 9.95701 12.9788 9.84291 13.1083C9.72861 13.2375 9.57819 13.3518 9.39178 13.4506C9.20541 13.5497 9.02444 13.6295 8.8495 13.6904C8.67433 13.7515 8.463 13.8045 8.21584 13.8504C7.96812 13.8961 7.75131 13.9282 7.56462 13.9474C7.37821 13.9665 7.15565 13.9816 6.89673 13.9931C6.63801 14.0043 6.43616 14.0101 6.29158 14.0101C6.14692 14.0101 5.96419 14.0081 5.74343 14.0043C5.52254 14.0008 5.38184 13.9989 5.32089 13.9989V10.1393C5.38172 10.1393 5.56253 10.1355 5.86329 10.1278C6.16408 10.1201 6.40944 10.1165 6.59977 10.1165C6.79006 10.1165 7.05278 10.1278 7.38785 10.1508C7.7226 10.1735 8.00427 10.2076 8.23284 10.2532C8.46112 10.299 8.71025 10.3693 8.98068 10.4646C9.25084 10.5597 9.46981 10.6757 9.63734 10.8128C9.80484 10.95 9.94557 11.1248 10.0597 11.338C10.1741 11.5511 10.2312 11.7948 10.2312 12.0689C10.2312 12.2822 10.1951 12.4761 10.1226 12.6513Z" fill="white"/>
</svg>
