<svg width="25" height="25" viewBox="0 0 25 25" fill="none" xmlns="http://www.w3.org/2000/svg">
<g clip-path="url(#clip0_1_3098)">
<path d="M21.3281 12.3984C21.3281 7.42969 17.2969 3.39844 12.3281 3.39844C7.35938 3.39844 3.32812 7.42969 3.32812 12.3984C3.32812 17.3672 7.35938 21.3984 12.3281 21.3984C17.2969 21.3984 21.3281 17.3672 21.3281 12.3984Z" stroke="white" stroke-width="1.5" stroke-miterlimit="10"/>
<path d="M16.3378 9.67265L15.8048 9.0525C15.076 8.28938 14.1179 7.78506 13.0763 7.61617C12.0346 7.44729 10.9663 7.62308 10.0337 8.11682C9.10103 8.61056 8.35508 9.39527 7.90917 10.3517C7.46326 11.3081 7.34177 12.384 7.56316 13.4157C7.78455 14.4475 8.33671 15.3788 9.13574 16.0681C9.93477 16.7574 10.937 17.167 11.9901 17.2347C13.0432 17.3024 14.0896 17.0244 14.9702 16.443C15.8509 15.8617 16.5177 15.0087 16.8694 14.0137" stroke="white" stroke-width="1.5" stroke-miterlimit="10" stroke-linecap="round"/>
<path d="M17.5463 7.99216C17.4939 7.99238 17.442 8.00302 17.3937 8.02346C17.3454 8.0439 17.3017 8.07373 17.265 8.11122L14.4741 10.9022C14.4175 10.9586 14.3789 11.0306 14.3632 11.1089C14.3475 11.1873 14.3555 11.2686 14.386 11.3425C14.4166 11.4163 14.4684 11.4795 14.535 11.5238C14.6015 11.5682 14.6796 11.5918 14.7596 11.5917H17.5505C17.6577 11.5917 17.7605 11.5491 17.8362 11.4733C17.912 11.3976 17.9546 11.2948 17.9546 11.1876V8.39576C17.9547 8.3424 17.9443 8.28955 17.9238 8.24026C17.9034 8.19097 17.8734 8.14622 17.8355 8.1086C17.7977 8.07098 17.7528 8.04123 17.7034 8.02109C17.654 8.00094 17.6011 7.99079 17.5477 7.99122L17.5463 7.99216Z" fill="white" stroke="white" stroke-width="0.046875"/>
</g>
<defs>
<clipPath id="clip0_1_3098">
<rect width="24" height="24" fill="white" transform="translate(0.328125 0.398438)"/>
</clipPath>
</defs>
</svg>
