<svg width="20" height="13" viewBox="0 0 20 13" fill="none" xmlns="http://www.w3.org/2000/svg">
<path d="M3.63636 0.908335V1.3625C3.63636 2.61665 2.61883 3.63334 1.36364 3.63334H0.909091V9.08335H1.40126C2.65645 9.08335 3.67398 10.1 3.67398 11.3542V11.8083H16.3636V11.3542C16.3636 10.1 17.3812 9.08335 18.6364 9.08335H19.0909V3.63334H18.6364C17.3812 3.63334 16.3636 2.61665 16.3636 1.3625V0.908335H3.63636ZM2.72727 0.908335H2.27273C1.51961 0.908335 0.909091 1.51835 0.909091 2.27084V2.725H1.36364C2.11675 2.725 2.72727 2.11499 2.72727 1.3625V0.908335ZM2.76489 11.8083V11.3542C2.76489 10.6017 2.15437 9.99168 1.40126 9.99168H0.909091V10.4458C0.909091 11.1983 1.51961 11.8083 2.27273 11.8083H2.76489ZM3.3865 12.7167C3.33479 12.7371 3.27842 12.7483 3.21944 12.7483C3.16045 12.7483 3.10409 12.7371 3.05237 12.7167H2.27273C1.01753 12.7167 0 11.7 0 10.4458V2.27084C0 1.01669 1.01753 0 2.27273 0H17.7273C18.9825 0 20 1.01669 20 2.27084V10.4458C20 11.7 18.9825 12.7167 17.7273 12.7167H3.3865ZM17.2727 11.8083H17.7273C18.4804 11.8083 19.0909 11.1983 19.0909 10.4458V9.99168H18.6364C17.8832 9.99168 17.2727 10.6017 17.2727 11.3542V11.8083ZM17.2727 0.908335V1.3625C17.2727 2.11499 17.8832 2.725 18.6364 2.725H19.0909V2.27084C19.0909 1.51835 18.4804 0.908335 17.7273 0.908335H17.2727ZM10 9.99168C7.99169 9.99168 6.36364 8.36498 6.36364 6.35834C6.36364 4.3517 7.99169 2.725 10 2.725C12.0083 2.725 13.6364 4.3517 13.6364 6.35834C13.6364 8.36498 12.0083 9.99168 10 9.99168ZM10 9.08335C11.5062 9.08335 12.7273 7.86332 12.7273 6.35834C12.7273 4.85336 11.5062 3.63334 10 3.63334C8.49377 3.63334 7.27273 4.85336 7.27273 6.35834C7.27273 7.86332 8.49377 9.08335 10 9.08335Z" fill="white"/>
</svg>
