<svg width="150" height="150" viewBox="0 0 150 150" fill="none" xmlns="http://www.w3.org/2000/svg">
<path d="M147.803 75C147.803 82.5349 140.692 88.8531 138.487 95.652C136.202 102.698 138.166 111.979 133.902 117.844C129.595 123.768 120.144 124.746 114.226 129.057C108.367 133.325 104.541 142.047 97.5026 144.335C90.7113 146.542 82.5264 141.81 75 141.81C67.4736 141.81 59.2887 146.542 52.4974 144.335C45.4588 142.047 41.6326 133.325 35.7738 129.057C29.8564 124.746 20.4047 123.768 16.098 117.844C11.8342 111.979 13.7982 102.698 11.5128 95.652C9.30762 88.8531 2.19727 82.5352 2.19727 75C2.19727 67.4649 9.30762 61.147 11.5128 54.3481C13.7979 47.3016 11.8342 38.0215 16.098 32.156C20.4047 26.2322 29.8564 25.2545 35.7738 20.9432C41.6326 16.6746 45.4588 7.95325 52.4974 5.66517C59.2887 3.45765 67.4736 8.18968 75 8.18968C82.5264 8.18968 90.7113 3.45765 97.5026 5.66517C104.541 7.95325 108.367 16.6749 114.226 20.9435C120.144 25.2545 129.595 26.2322 133.902 32.156C138.166 38.0212 136.202 47.3016 138.487 54.3481C140.692 61.147 147.803 67.4649 147.803 75Z" fill="#CDC4FB"/>
<path d="M74.9999 126.331C103.318 126.331 126.274 103.349 126.274 75C126.274 46.6508 103.318 23.6693 74.9999 23.6693C46.6823 23.6693 23.7263 46.6508 23.7263 75C23.7263 103.349 46.6823 126.331 74.9999 126.331Z" fill="#836CF6"/>
<path d="M72.7616 97.6025C72.0165 97.6035 71.2786 97.4571 70.5902 97.172C69.9018 96.8868 69.2765 96.4684 68.7503 95.9408L56.946 84.1365C55.8988 83.0692 55.3153 81.6316 55.3223 80.1363C55.3294 78.641 55.9265 77.209 56.9838 76.1517C58.0411 75.0943 59.4731 74.4971 60.9683 74.4899C62.4636 74.4827 63.9013 75.0661 64.9687 76.1133L72.7616 83.9063L102.609 54.0586C103.136 53.5318 103.761 53.1139 104.45 52.8288C105.138 52.5437 105.876 52.397 106.621 52.397C107.366 52.397 108.103 52.5438 108.792 52.8289C109.48 53.114 110.105 53.5319 110.632 54.0587C111.159 54.5856 111.577 55.211 111.862 55.8993C112.147 56.5876 112.294 57.3253 112.294 58.0703C112.294 58.8153 112.147 59.5531 111.862 60.2414C111.577 60.9296 111.159 61.555 110.632 62.0818L76.7736 95.9405C76.2473 96.4681 75.622 96.8865 74.9336 97.1717C74.2451 97.4569 73.5071 97.6032 72.7619 97.6022L72.7616 97.6025Z" fill="#6A4FF4"/>
<path d="M63.9726 97.6025C63.2275 97.6035 62.4895 97.4571 61.8011 97.172C61.1127 96.8868 60.4874 96.4684 59.9613 95.9408L48.157 84.1365C47.1097 83.0692 46.5262 81.6316 46.5333 80.1363C46.5403 78.641 47.1374 77.209 48.1947 76.1517C49.252 75.0943 50.684 74.4971 52.1793 74.4899C53.6746 74.4827 55.1122 75.0661 56.1796 76.1133L63.9726 83.9063L93.82 54.0586C94.8839 52.9947 96.3269 52.397 97.8315 52.397C99.3361 52.3971 100.779 52.9948 101.843 54.0587C102.907 55.1227 103.505 56.5657 103.505 58.0703C103.505 59.5749 102.907 61.0179 101.843 62.0818L67.9845 95.9405C67.4583 96.4681 66.8329 96.8865 66.1445 97.1717C65.4561 97.4569 64.718 97.6032 63.9729 97.6022L63.9726 97.6025Z" fill="white"/>
</svg>
