<svg width="18" height="18" viewBox="0 0 18 18" fill="none" xmlns="http://www.w3.org/2000/svg">
<path d="M8.88889 0C7.13084 0 5.41226 0.521324 3.95049 1.49805C2.48872 2.47477 1.34941 3.86303 0.67663 5.48726C0.00385139 7.11149 -0.172178 8.89875 0.170801 10.623C0.513781 12.3473 1.36037 13.9311 2.6035 15.1743C3.84663 16.4174 5.43048 17.264 7.15476 17.607C8.87903 17.95 10.6663 17.7739 12.2905 17.1012C13.9148 16.4284 15.303 15.2891 16.2797 13.8273C17.2565 12.3655 17.7778 10.6469 17.7778 8.88889C17.7778 6.53141 16.8413 4.27049 15.1743 2.6035C13.5073 0.936505 11.2464 0 8.88889 0V0ZM8.88889 16.6667C7.35059 16.6667 5.84684 16.2105 4.56779 15.3559C3.28874 14.5012 2.29184 13.2865 1.70316 11.8653C1.11448 10.4441 0.960456 8.88026 1.26056 7.37152C1.56067 5.86278 2.30143 4.47691 3.38917 3.38917C4.47691 2.30143 5.86278 1.56067 7.37152 1.26056C8.88026 0.960452 10.4441 1.11448 11.8653 1.70316C13.2865 2.29184 14.5012 3.28874 15.3559 4.56779C16.2105 5.84684 16.6667 7.35059 16.6667 8.88889C16.6667 10.9517 15.8472 12.93 14.3886 14.3886C12.93 15.8472 10.9517 16.6667 8.88889 16.6667Z" fill="white"/>
<path d="M9.05001 3.84443C8.44799 3.83448 7.85116 3.95725 7.30194 4.20402C6.75272 4.45078 6.26459 4.81548 5.87224 5.27221C5.81773 5.32272 5.77391 5.38366 5.74337 5.45141C5.71283 5.51917 5.6962 5.59236 5.69446 5.66665C5.69442 5.7352 5.70817 5.80305 5.73489 5.86618C5.76162 5.9293 5.80076 5.9864 5.85 6.03409C5.89924 6.08177 5.95757 6.11907 6.02152 6.14375C6.08547 6.16843 6.15373 6.18 6.22224 6.17777C6.369 6.17413 6.50934 6.11681 6.61668 6.01665C6.9136 5.6687 7.28239 5.3892 7.69765 5.19739C8.11292 5.00558 8.56481 4.90602 9.02224 4.90554C10.3333 4.90554 11.15 5.74999 11.15 6.79999V6.82777C11.15 8.05554 10.1722 8.73888 8.62779 8.85554C8.56525 8.85796 8.50393 8.87355 8.44784 8.90131C8.39174 8.92906 8.34214 8.96835 8.30228 9.0166C8.26243 9.06485 8.23321 9.12097 8.21654 9.1813C8.19987 9.24162 8.19614 9.30479 8.20557 9.36665C8.20557 9.36665 8.20557 10.6555 8.20557 10.8944C8.21939 11.0319 8.28397 11.1594 8.38669 11.2518C8.48942 11.3443 8.62292 11.3951 8.76113 11.3944H8.82224C8.95975 11.3806 9.08717 11.316 9.17963 11.2133C9.27208 11.1106 9.32293 10.9771 9.32224 10.8389V9.69443C10.9889 9.4611 12.3389 8.58332 12.3389 6.7611V6.73332C12.3222 5.06665 11.0222 3.84443 9.05001 3.84443Z" fill="white"/>
<path d="M8.76671 14.139C9.15024 14.139 9.46115 13.8281 9.46115 13.4446C9.46115 13.061 9.15024 12.7501 8.76671 12.7501C8.38318 12.7501 8.07227 13.061 8.07227 13.4446C8.07227 13.8281 8.38318 14.139 8.76671 14.139Z" fill="white"/>
</svg>
