<svg width="25" height="15" viewBox="0 0 25 15" fill="none" xmlns="http://www.w3.org/2000/svg">
<path d="M18.1833 4.92186L20.1741 1.47327C20.2274 1.38069 20.242 1.27077 20.2146 1.16748C20.1872 1.0642 20.1201 0.975957 20.0278 0.922016C19.9822 0.89527 19.9318 0.877831 19.8795 0.87071C19.8271 0.863589 19.7739 0.866926 19.7228 0.880528C19.6718 0.894131 19.6239 0.917729 19.5821 0.949955C19.5402 0.982181 19.5051 1.02239 19.4789 1.06827L17.4633 4.56139C15.9244 3.85827 14.1923 3.46686 12.3295 3.46686C10.4667 3.46686 8.73469 3.85873 7.19578 4.56139L5.18016 1.06827C5.12645 0.975772 5.0382 0.9084 4.93482 0.880973C4.83144 0.853546 4.7214 0.868309 4.62891 0.922016C4.53641 0.975722 4.46904 1.06397 4.44161 1.16735C4.41419 1.27073 4.42895 1.38077 4.48266 1.47327L6.46875 4.92186C3.0375 6.77998 0.712031 10.2548 0.328125 14.3226H24.3281C23.9442 10.2548 21.6187 6.77998 18.1833 4.92186ZM6.81797 10.9523C6.61901 10.9523 6.42453 10.8933 6.2591 10.7828C6.09367 10.6723 5.96474 10.5152 5.8886 10.3313C5.81247 10.1475 5.79255 9.94527 5.83136 9.75014C5.87017 9.55501 5.96598 9.37577 6.10666 9.23509C6.24735 9.0944 6.42659 8.9986 6.62172 8.95978C6.81685 8.92097 7.01911 8.94089 7.20292 9.01703C7.38674 9.09316 7.54384 9.2221 7.65438 9.38752C7.76491 9.55295 7.82391 9.74744 7.82391 9.94639C7.82378 10.2131 7.71776 10.4689 7.52914 10.6576C7.34051 10.8462 7.08472 10.9522 6.81797 10.9523ZM17.8336 10.9523C17.6348 10.9515 17.4407 10.8918 17.2759 10.7807C17.111 10.6697 16.9827 10.5123 16.9072 10.3284C16.8318 10.1445 16.8124 9.94242 16.8517 9.74757C16.891 9.55271 16.9871 9.37387 17.128 9.23361C17.2688 9.09335 17.4481 8.99796 17.6431 8.95948C17.8381 8.92101 18.0402 8.94118 18.2237 9.01744C18.4073 9.0937 18.5642 9.22263 18.6745 9.38796C18.7849 9.5533 18.8437 9.74761 18.8438 9.94639C18.8437 10.0787 18.8176 10.2096 18.7668 10.3318C18.7161 10.454 18.6418 10.565 18.5482 10.6584C18.4545 10.7518 18.3434 10.8259 18.2211 10.8763C18.0988 10.9267 17.9678 10.9526 17.8355 10.9523H17.8336Z" fill="white" stroke="white" stroke-width="0.046875"/>
</svg>
