<svg version="1.1" id="Layer_1" xmlns="http://www.w3.org/2000/svg" x="0px" y="0px" width="100%"
    viewBox="0 0 1133 181" xml:space="preserve">
<path  opacity="1.000000" stroke="none" 
	d="
M268.000000,182.000000 
	C179.000000,182.000000 90.000000,182.000000 1.000000,181.994476 
	C1.000000,180.325348 1.000000,178.661743 1.397246,176.502991 
	C4.572044,179.584244 8.666014,179.882462 12.221270,178.702728 
	C15.932402,177.471283 16.056816,173.559555 16.040478,169.934952 
	C15.954181,150.790359 15.995111,131.645157 16.009863,112.500175 
	C16.010969,111.065544 16.152445,109.631035 16.239105,108.000000 
	C34.197983,108.000000 51.825302,108.190872 69.446472,107.943626 
	C85.463005,107.718895 96.957458,99.445763 104.921204,86.135201 
	C112.050140,74.219948 113.470161,61.251804 111.070160,47.615021 
	C108.946732,35.549721 102.772064,25.950642 93.023735,19.234709 
	C87.397079,15.358328 80.243980,11.363877 73.807610,11.411800 
	C49.546566,11.592438 25.163101,8.506533 1.000000,13.000000 
	C1.000000,9.002006 1.000000,5.004011 1.000000,1.003008 
	C285.355347,1.000000 569.710693,1.000000 854.818726,1.280608 
	C849.946350,6.479491 847.264221,12.187488 847.796082,20.126860 
	C848.584290,31.893064 848.021484,43.751297 847.976135,55.570129 
	C847.969543,57.279354 847.642273,58.987347 847.411987,61.187065 
	C845.672058,60.204422 844.480896,59.703194 843.486389,58.944260 
	C829.040649,47.920425 812.425476,44.932968 795.520264,49.491718 
	C768.721619,56.718380 753.992432,79.025360 751.268005,104.900269 
	C750.270935,114.370117 751.259644,124.385078 753.211243,133.762421 
	C757.883850,156.213989 770.834229,172.023453 793.312012,179.126404 
	C794.704956,179.566574 795.778076,181.018707 797.000000,182.000000 
	C755.644653,182.000000 714.289307,182.000000 672.172485,181.673950 
	C679.845337,176.899414 688.279663,172.450928 696.900818,167.903885 
	C696.974792,168.068192 697.568176,169.169540 697.980774,170.334915 
	C701.264709,179.611237 714.821716,182.636765 721.825012,175.701477 
	C726.117493,171.450714 726.924988,165.992966 726.945251,160.466614 
	C727.058960,129.486053 727.031555,98.504807 726.953125,67.524040 
	C726.944946,64.290657 726.568909,60.995808 725.865906,57.840343 
	C724.624817,52.269646 719.081055,47.713730 713.435120,48.136532 
	C709.749146,48.412552 705.551575,49.159218 702.696960,51.230259 
	C699.690247,53.411606 698.008850,57.419682 695.592834,60.850498 
	C684.561096,52.183018 671.752563,47.478527 656.964783,47.917393 
	C635.209717,48.563026 619.722717,59.323883 609.322754,77.497025 
	C599.589966,94.504326 597.636597,112.991928 601.962585,132.147385 
	C607.483093,156.592453 620.832703,173.749222 646.029114,180.103760 
	C646.483276,180.218323 646.682068,181.345383 647.000000,182.000000 
	C529.977966,182.000000 412.955963,182.000000 295.169800,181.658859 
	C295.223999,180.879028 295.997742,180.197708 296.867310,180.037933 
	C310.815338,177.475113 321.642578,169.396439 329.560822,158.499802 
	C343.646851,139.115524 346.454498,117.246643 338.929260,94.498734 
	C328.630341,63.366428 298.496094,47.514816 267.889343,54.331886 
	C246.321762,59.135654 231.463989,73.124924 223.931702,94.340881 
	C220.147888,104.998642 219.522751,115.754044 220.834488,126.986099 
	C222.046494,137.364471 225.224121,146.939133 231.037811,155.283478 
	C239.825073,167.895798 251.393478,177.116425 267.058655,180.100113 
	C267.477844,180.179962 267.690857,181.342407 268.000000,182.000000 
M463.500000,11.000000 
	C433.846466,11.000000 404.192963,10.997169 374.539429,11.002397 
	C368.633118,11.003438 362.984528,14.519273 361.285339,19.216320 
	C359.354126,24.554766 361.069794,32.886978 365.553894,35.785267 
	C368.367004,37.603497 372.091034,38.764290 375.445007,38.859543 
	C387.867371,39.212337 400.305817,39.000000 413.000000,39.000000 
	C413.000000,41.325943 413.000000,43.130219 413.000000,44.934494 
	C413.000000,84.750206 412.965485,124.566025 413.078186,164.381409 
	C413.085632,167.015442 413.689240,169.929184 414.924591,172.223297 
	C418.087830,178.097534 426.857635,180.902237 434.281525,178.902176 
	C440.485931,177.230667 444.992920,170.893188 444.994843,163.724976 
	C445.005676,123.909264 445.000000,84.093552 445.000000,44.277836 
	C445.000000,42.535496 445.000000,40.793159 445.000000,38.999969 
	C458.394379,38.999969 471.055634,39.080757 483.715118,38.967297 
	C490.462585,38.906818 497.663635,33.636669 497.205261,23.876522 
	C496.921448,17.833254 490.515564,10.307393 483.482483,10.890391 
	C477.195160,11.411569 470.830505,11.000001 463.500000,11.000000 
M515.143799,178.988235 
	C516.809326,178.992157 518.498779,178.814880 520.136292,179.031174 
	C527.433899,179.995163 531.092773,175.715073 533.456055,169.921143 
	C534.524353,167.302124 534.916138,164.247681 534.935486,161.386246 
	C535.060974,142.732330 535.297424,124.070328 534.869385,105.425392 
	C534.667664,96.639687 537.438660,89.099083 542.380127,82.394882 
	C546.621765,76.640190 557.344727,71.615570 566.908875,75.114944 
	C571.565002,76.818542 577.714783,77.048195 582.373840,75.497620 
	C588.681824,73.398285 590.823792,65.485146 588.934265,57.860107 
	C587.917969,53.759087 580.514038,48.302917 575.488220,48.005314 
	C561.285095,47.164276 548.757996,50.799191 538.850769,61.610653 
	C537.765747,62.794731 536.160767,63.502327 534.467834,64.655014 
	C533.356873,55.340942 526.648621,49.455605 518.518921,50.012669 
	C510.213348,50.581795 504.754761,58.241222 504.837585,65.461769 
	C505.210022,97.936768 505.083405,130.418839 504.936707,162.897430 
	C504.903320,170.292694 507.332825,175.779129 515.143799,178.988235 
M141.920700,59.623260 
	C141.280472,62.241905 140.092636,64.858528 140.082962,67.479500 
	C139.957748,101.441772 139.964981,135.404785 140.077515,169.367126 
	C140.085159,171.673218 140.810440,174.181030 141.887589,176.235596 
	C143.926895,180.125336 148.421310,180.017105 151.027573,178.598633 
	C153.446426,177.282181 155.722794,173.304062 155.785828,170.447662 
	C156.200806,151.644119 156.224075,132.823517 155.930313,114.015411 
	C155.687851,98.492569 161.723892,85.795021 172.961975,75.752197 
	C181.030807,68.541557 190.210861,63.735279 201.776886,68.806007 
	C206.495483,70.874710 210.872681,67.162247 210.999939,61.912922 
	C211.124634,56.769024 206.709183,53.177605 199.888565,53.009941 
	C184.658417,52.635555 172.568771,58.639290 163.533310,70.917473 
	C161.448257,73.750809 159.071030,76.369133 155.999954,80.089935 
	C155.999954,73.993141 156.514435,69.431976 155.813736,65.065834 
	C155.368515,62.291580 153.676636,58.430668 151.528122,57.558155 
	C149.109222,56.575848 145.548920,58.404167 141.920700,59.623260 
z"/>
<path fill="#000000" opacity="1.000000" stroke="none" 
	d="
M1134.000000,71.000000 
	C1134.000000,107.938126 1134.000000,144.876251 1134.000000,182.000000 
	C1083.979248,182.000000 1033.958252,182.000000 983.171997,181.661865 
	C982.889404,180.896469 983.318054,180.188339 983.862671,180.083694 
	C993.335632,178.263626 1001.842896,174.270813 1009.675476,168.742203 
	C1018.129456,162.775024 1018.927551,148.471481 1009.017029,143.989334 
	C1003.097900,141.312302 997.770752,143.569046 992.986938,146.622452 
	C983.569458,152.633484 973.505676,153.863678 962.568909,153.147415 
	C947.891907,152.186188 932.802795,137.933655 931.756714,125.080650 
	C931.921631,125.057205 932.086609,125.013290 932.251526,125.013245 
	C958.238831,125.006775 984.226135,125.006363 1010.213440,124.998367 
	C1018.786011,124.995728 1024.929321,118.937103 1024.983154,110.304375 
	C1025.030151,102.765762 1023.012024,95.721626 1020.370361,88.662018 
	C1010.512573,62.317951 982.002930,42.653469 952.301147,48.965282 
	C929.494995,53.811729 914.415955,67.460060 906.001282,88.863632 
	C900.425842,103.045280 900.862366,117.810265 903.179321,132.399536 
	C904.946777,143.528870 910.148376,153.364227 918.107788,161.695587 
	C927.493958,171.520386 938.559509,177.928497 952.030823,180.110916 
	C952.445068,180.178024 952.680969,181.345520 953.000000,182.000000 
	C909.645752,182.000000 866.291565,182.000000 822.172241,181.663818 
	C830.186218,176.932693 838.965332,172.537750 847.855957,168.087021 
	C847.708557,167.536880 847.823669,168.101379 848.009888,168.641327 
	C850.877502,176.955154 857.179626,180.482437 866.485901,178.992447 
	C872.358276,178.052261 876.972839,172.363617 876.978149,165.634460 
	C877.018250,115.229553 877.060303,64.824341 876.842773,14.420340 
	C876.830322,11.544874 874.767029,8.553882 873.240662,5.852638 
	C872.205750,4.021151 870.439270,2.603001 869.000000,1.000001 
	C957.212463,1.000000 1045.424927,1.000000 1134.000000,1.000000 
	C1134.000000,19.019272 1134.000000,37.040977 1133.719727,55.817039 
	C1112.650635,38.406727 1095.906982,50.007248 1079.227905,63.720638 
	C1078.862427,62.605278 1078.458740,61.232349 1077.965820,59.892208 
	C1075.603516,53.469807 1067.996582,48.942848 1061.402466,50.010529 
	C1054.562012,51.118092 1049.025146,57.498611 1049.016968,64.566650 
	C1048.978638,97.865250 1048.981445,131.163925 1049.021240,164.462524 
	C1049.026855,169.135651 1050.881348,173.011490 1054.477051,176.135757 
	C1059.486328,180.488342 1065.351685,180.045074 1070.590820,177.901993 
	C1076.189087,175.612091 1078.988403,170.439407 1078.993774,164.161057 
	C1079.010620,144.514877 1078.954712,124.868454 1079.045166,105.222656 
	C1079.060059,101.991013 1079.260864,98.654152 1080.077393,95.550507 
	C1083.726196,81.683212 1095.457153,69.225357 1113.397583,75.932838 
	C1119.872925,78.353806 1126.533569,78.423561 1131.191040,71.576111 
	C1131.576538,71.009392 1133.038330,71.174797 1134.000000,71.000000 
z"/>
<path fill="#FFFFFF" opacity="1.000000" stroke="none" 
	d="
M868.535339,1.000001 
	C870.439270,2.603001 872.205750,4.021151 873.240662,5.852638 
	C874.767029,8.553882 876.830322,11.544874 876.842773,14.420340 
	C877.060303,64.824341 877.018250,115.229553 876.978149,165.634460 
	C876.972839,172.363617 872.358276,178.052261 866.485901,178.992447 
	C857.179626,180.482437 850.877502,176.955154 848.009888,168.641327 
	C847.823669,168.101379 847.708557,167.536880 847.855957,168.087021 
	C838.965332,172.537750 830.186218,176.932693 821.703552,181.663818 
	C813.979065,182.000000 805.958191,182.000000 797.468628,182.000000 
	C795.778076,181.018707 794.704956,179.566574 793.312012,179.126404 
	C770.834229,172.023453 757.883850,156.213989 753.211243,133.762421 
	C751.259644,124.385078 750.270935,114.370117 751.268005,104.900269 
	C753.992432,79.025360 768.721619,56.718380 795.520264,49.491718 
	C812.425476,44.932968 829.040649,47.920425 843.486389,58.944260 
	C844.480896,59.703194 845.672058,60.204422 847.411987,61.187065 
	C847.642273,58.987347 847.969543,57.279354 847.976135,55.570129 
	C848.021484,43.751297 848.584290,31.893064 847.796082,20.126860 
	C847.264221,12.187488 849.946350,6.479491 855.285767,1.280608 
	C859.356873,1.000000 863.713806,1.000000 868.535339,1.000001 
M837.509521,85.006622 
	C823.553650,69.884811 797.954407,72.005386 786.636597,89.801743 
	C780.808533,98.966019 778.485596,108.616165 779.772400,119.656067 
	C780.813232,128.585556 783.734070,136.414124 789.524231,142.819733 
	C796.927795,151.010223 806.371216,154.480164 817.756531,153.134888 
	C827.416809,151.993408 835.060181,147.986679 840.391235,140.042023 
	C846.859802,130.402191 850.320740,120.031731 848.130188,108.035789 
	C846.582642,99.561035 844.029053,91.843796 837.509521,85.006622 
z"/>
<path fill="#FFFFFF" opacity="1.000000" stroke="none" 
	d="
M647.468628,182.000000 
	C646.682068,181.345383 646.483276,180.218323 646.029114,180.103760 
	C620.832703,173.749222 607.483093,156.592453 601.962585,132.147385 
	C597.636597,112.991928 599.589966,94.504326 609.322754,77.497025 
	C619.722717,59.323883 635.209717,48.563026 656.964783,47.917393 
	C671.752563,47.478527 684.561096,52.183018 695.592834,60.850498 
	C698.008850,57.419682 699.690247,53.411606 702.696960,51.230259 
	C705.551575,49.159218 709.749146,48.412552 713.435120,48.136532 
	C719.081055,47.713730 724.624817,52.269646 725.865906,57.840343 
	C726.568909,60.995808 726.944946,64.290657 726.953125,67.524040 
	C727.031555,98.504807 727.058960,129.486053 726.945251,160.466614 
	C726.924988,165.992966 726.117493,171.450714 721.825012,175.701477 
	C714.821716,182.636765 701.264709,179.611237 697.980774,170.334915 
	C697.568176,169.169540 696.974792,168.068192 696.900818,167.903885 
	C688.279663,172.450928 679.845337,176.899414 671.705566,181.673950 
	C663.979065,182.000000 655.958191,182.000000 647.468628,182.000000 
M646.028564,148.548218 
	C652.559631,153.023315 659.708923,153.904251 667.494690,153.106277 
	C676.895325,152.142776 684.405579,147.714340 689.658569,140.503036 
	C701.958130,123.618332 701.166199,97.998795 684.614807,83.067612 
	C670.366882,70.214447 648.048523,73.460846 636.974426,87.957664 
	C629.947632,97.156227 628.383179,107.618683 628.981506,118.753410 
	C629.653931,131.267746 635.280823,140.923462 646.028564,148.548218 
z"/>
<path fill="#FFFFFF" opacity="1.000000" stroke="none" 
	d="
M953.468628,182.000000 
	C952.680969,181.345520 952.445068,180.178024 952.030823,180.110916 
	C938.559509,177.928497 927.493958,171.520386 918.107788,161.695587 
	C910.148376,153.364227 904.946777,143.528870 903.179321,132.399536 
	C900.862366,117.810265 900.425842,103.045280 906.001282,88.863632 
	C914.415955,67.460060 929.494995,53.811729 952.301147,48.965282 
	C982.002930,42.653469 1010.512573,62.317951 1020.370361,88.662018 
	C1023.012024,95.721626 1025.030151,102.765762 1024.983154,110.304375 
	C1024.929321,118.937103 1018.786011,124.995728 1010.213440,124.998367 
	C984.226135,125.006363 958.238831,125.006775 932.251526,125.013245 
	C932.086609,125.013290 931.921631,125.057205 931.756714,125.080650 
	C932.802795,137.933655 947.891907,152.186188 962.568909,153.147415 
	C973.505676,153.863678 983.569458,152.633484 992.986938,146.622452 
	C997.770752,143.569046 1003.097900,141.312302 1009.017029,143.989334 
	C1018.927551,148.471481 1018.129456,162.775024 1009.675476,168.742203 
	C1001.842896,174.270813 993.335632,178.263626 983.862671,180.083694 
	C983.318054,180.188339 982.889404,180.896469 982.703369,181.661865 
	C973.312439,182.000000 963.624878,182.000000 953.468628,182.000000 
M933.023438,98.978760 
	C952.973572,98.978760 972.923645,98.978760 994.703735,98.978760 
	C991.760803,93.797005 990.073303,89.151207 987.009827,85.741737 
	C977.329163,74.967674 965.207642,72.735367 951.546448,76.876549 
	C940.552856,80.209076 934.110168,87.380554 933.023438,98.978760 
z"/>
<path fill="#FFFFFF" opacity="1.000000" stroke="none" 
	d="
M1.000000,13.468657 
	C25.163101,8.506533 49.546566,11.592438 73.807610,11.411800 
	C80.243980,11.363877 87.397079,15.358328 93.023735,19.234709 
	C102.772064,25.950642 108.946732,35.549721 111.070160,47.615021 
	C113.470161,61.251804 112.050140,74.219948 104.921204,86.135201 
	C96.957458,99.445763 85.463005,107.718895 69.446472,107.943626 
	C51.825302,108.190872 34.197983,108.000000 16.239105,108.000000 
	C16.152445,109.631035 16.010969,111.065544 16.009863,112.500175 
	C15.995111,131.645157 15.954181,150.790359 16.040478,169.934952 
	C16.056816,173.559555 15.932402,177.471283 12.221270,178.702728 
	C8.666014,179.882462 4.572044,179.584244 1.397246,176.003937 
	C1.000000,121.979103 1.000000,67.958206 1.000000,13.468657 
M18.680460,93.999725 
	C33.661575,93.999817 48.645229,94.165230 63.622814,93.935379 
	C72.040909,93.806190 79.881088,91.633896 86.133934,85.394958 
	C97.171997,74.381439 99.415131,53.783638 91.840958,40.678879 
	C87.467575,33.112080 81.016197,26.658684 72.141258,26.257339 
	C53.585056,25.418184 34.964451,26.003101 16.003620,26.003101 
	C16.003620,48.347420 15.990078,70.276886 16.075275,92.205971 
	C16.077600,92.804787 17.143599,93.399460 18.680460,93.999725 
z"/>
<path fill="#FFFFFF" opacity="1.000000" stroke="none" 
	d="
M268.468658,182.000000 
	C267.690857,181.342407 267.477844,180.179962 267.058655,180.100113 
	C251.393478,177.116425 239.825073,167.895798 231.037811,155.283478 
	C225.224121,146.939133 222.046494,137.364471 220.834488,126.986099 
	C219.522751,115.754044 220.147888,104.998642 223.931702,94.340881 
	C231.463989,73.124924 246.321762,59.135654 267.889343,54.331886 
	C298.496094,47.514816 328.630341,63.366428 338.929260,94.498734 
	C346.454498,117.246643 343.646851,139.115524 329.560822,158.499802 
	C321.642578,169.396439 310.815338,177.475113 296.867310,180.037933 
	C295.997742,180.197708 295.223999,180.879028 294.702820,181.658859 
	C286.312439,182.000000 277.624878,182.000000 268.468658,182.000000 
M283.078766,166.396881 
	C283.551910,166.268112 284.021606,166.041840 284.498749,166.024765 
	C298.636536,165.518509 309.374756,159.032074 317.767578,147.821487 
	C326.210510,136.543945 328.045776,123.706818 326.876465,110.334343 
	C325.947418,99.709518 321.960297,89.902390 314.496307,82.113503 
	C303.971039,71.130081 291.283875,65.652977 275.640839,67.921776 
	C263.259674,69.717484 253.631760,75.596283 245.937302,85.285583 
	C237.309402,96.150299 235.036118,108.614159 236.005875,122.000328 
	C237.253891,139.227219 245.186295,152.234894 260.173096,161.086670 
	C267.120667,165.190125 274.792206,165.729507 283.078766,166.396881 
z"/>
<path fill="#FFFFFF" opacity="1.000000" stroke="none" 
	d="
M1134.000000,70.533882 
	C1133.038330,71.174797 1131.576538,71.009392 1131.191040,71.576111 
	C1126.533569,78.423561 1119.872925,78.353806 1113.397583,75.932838 
	C1095.457153,69.225357 1083.726196,81.683212 1080.077393,95.550507 
	C1079.260864,98.654152 1079.060059,101.991013 1079.045166,105.222656 
	C1078.954712,124.868454 1079.010620,144.514877 1078.993774,164.161057 
	C1078.988403,170.439407 1076.189087,175.612091 1070.590820,177.901993 
	C1065.351685,180.045074 1059.486328,180.488342 1054.477051,176.135757 
	C1050.881348,173.011490 1049.026855,169.135651 1049.021240,164.462524 
	C1048.981445,131.163925 1048.978638,97.865250 1049.016968,64.566650 
	C1049.025146,57.498611 1054.562012,51.118092 1061.402466,50.010529 
	C1067.996582,48.942848 1075.603516,53.469807 1077.965820,59.892208 
	C1078.458740,61.232349 1078.862427,62.605278 1079.227905,63.720638 
	C1095.906982,50.007248 1112.650635,38.406727 1133.719727,56.285698 
	C1134.000000,60.689255 1134.000000,65.378510 1134.000000,70.533882 
z"/>
<path fill="#FFFFFF" opacity="1.000000" stroke="none" 
	d="
M464.000000,11.000000 
	C470.830505,11.000001 477.195160,11.411569 483.482483,10.890391 
	C490.515564,10.307393 496.921448,17.833254 497.205261,23.876522 
	C497.663635,33.636669 490.462585,38.906818 483.715118,38.967297 
	C471.055634,39.080757 458.394379,38.999969 445.000000,38.999969 
	C445.000000,40.793159 445.000000,42.535496 445.000000,44.277836 
	C445.000000,84.093552 445.005676,123.909264 444.994843,163.724976 
	C444.992920,170.893188 440.485931,177.230667 434.281525,178.902176 
	C426.857635,180.902237 418.087830,178.097534 414.924591,172.223297 
	C413.689240,169.929184 413.085632,167.015442 413.078186,164.381409 
	C412.965485,124.566025 413.000000,84.750206 413.000000,44.934494 
	C413.000000,43.130219 413.000000,41.325943 413.000000,39.000000 
	C400.305817,39.000000 387.867371,39.212337 375.445007,38.859543 
	C372.091034,38.764290 368.367004,37.603497 365.553894,35.785267 
	C361.069794,32.886978 359.354126,24.554766 361.285339,19.216320 
	C362.984528,14.519273 368.633118,11.003438 374.539429,11.002397 
	C404.192963,10.997169 433.846466,11.000000 464.000000,11.000000 
z"/>
<path fill="#FFFFFF" opacity="1.000000" stroke="none" 
	d="
M514.726929,178.905518 
	C507.332825,175.779129 504.903320,170.292694 504.936707,162.897430 
	C505.083405,130.418839 505.210022,97.936768 504.837585,65.461769 
	C504.754761,58.241222 510.213348,50.581795 518.518921,50.012669 
	C526.648621,49.455605 533.356873,55.340942 534.467834,64.655014 
	C536.160767,63.502327 537.765747,62.794731 538.850769,61.610653 
	C548.757996,50.799191 561.285095,47.164276 575.488220,48.005314 
	C580.514038,48.302917 587.917969,53.759087 588.934265,57.860107 
	C590.823792,65.485146 588.681824,73.398285 582.373840,75.497620 
	C577.714783,77.048195 571.565002,76.818542 566.908875,75.114944 
	C557.344727,71.615570 546.621765,76.640190 542.380127,82.394882 
	C537.438660,89.099083 534.667664,96.639687 534.869385,105.425392 
	C535.297424,124.070328 535.060974,142.732330 534.935486,161.386246 
	C534.916138,164.247681 534.524353,167.302124 533.456055,169.921143 
	C531.092773,175.715073 527.433899,179.995163 520.136292,179.031174 
	C518.498779,178.814880 516.809326,178.992157 514.726929,178.905518 
z"/>
<path fill="#FFFFFF" opacity="1.000000" stroke="none" 
	d="
M142.202911,59.316586 
	C145.548920,58.404167 149.109222,56.575848 151.528122,57.558155 
	C153.676636,58.430668 155.368515,62.291580 155.813736,65.065834 
	C156.514435,69.431976 155.999954,73.993141 155.999954,80.089935 
	C159.071030,76.369133 161.448257,73.750809 163.533310,70.917473 
	C172.568771,58.639290 184.658417,52.635555 199.888565,53.009941 
	C206.709183,53.177605 211.124634,56.769024 210.999939,61.912922 
	C210.872681,67.162247 206.495483,70.874710 201.776886,68.806007 
	C190.210861,63.735279 181.030807,68.541557 172.961975,75.752197 
	C161.723892,85.795021 155.687851,98.492569 155.930313,114.015411 
	C156.224075,132.823517 156.200806,151.644119 155.785828,170.447662 
	C155.722794,173.304062 153.446426,177.282181 151.027573,178.598633 
	C148.421310,180.017105 143.926895,180.125336 141.887589,176.235596 
	C140.810440,174.181030 140.085159,171.673218 140.077515,169.367126 
	C139.964981,135.404785 139.957748,101.441772 140.082962,67.479500 
	C140.092636,64.858528 141.280472,62.241905 142.202911,59.316586 
z"/>
<path fill="#000000" opacity="1.000000" stroke="none" 
	d="
M837.761414,85.264267 
	C844.029053,91.843796 846.582642,99.561035 848.130188,108.035789 
	C850.320740,120.031731 846.859802,130.402191 840.391235,140.042023 
	C835.060181,147.986679 827.416809,151.993408 817.756531,153.134888 
	C806.371216,154.480164 796.927795,151.010223 789.524231,142.819733 
	C783.734070,136.414124 780.813232,128.585556 779.772400,119.656067 
	C778.485596,108.616165 780.808533,98.966019 786.636597,89.801743 
	C797.954407,72.005386 823.553650,69.884811 837.761414,85.264267 
z"/>
<path fill="#000000" opacity="1.000000" stroke="none" 
	d="
M645.750366,148.296051 
	C635.280823,140.923462 629.653931,131.267746 628.981506,118.753410 
	C628.383179,107.618683 629.947632,97.156227 636.974426,87.957664 
	C648.048523,73.460846 670.366882,70.214447 684.614807,83.067612 
	C701.166199,97.998795 701.958130,123.618332 689.658569,140.503036 
	C684.405579,147.714340 676.895325,152.142776 667.494690,153.106277 
	C659.708923,153.904251 652.559631,153.023315 645.750366,148.296051 
z"/>
<path fill="#000000" opacity="1.000000" stroke="none" 
	d="
M932.606323,98.824432 
	C934.110168,87.380554 940.552856,80.209076 951.546448,76.876549 
	C965.207642,72.735367 977.329163,74.967674 987.009827,85.741737 
	C990.073303,89.151207 991.760803,93.797005 994.703735,98.978760 
	C972.923645,98.978760 952.973572,98.978760 932.606323,98.824432 
z"/>
<path fill="#000000" opacity="1.000000" stroke="none" 
	d="
M18.197025,93.997894 
	C17.143599,93.399460 16.077600,92.804787 16.075275,92.205971 
	C15.990078,70.276886 16.003620,48.347420 16.003620,26.003101 
	C34.964451,26.003101 53.585056,25.418184 72.141258,26.257339 
	C81.016197,26.658684 87.467575,33.112080 91.840958,40.678879 
	C99.415131,53.783638 97.171997,74.381439 86.133934,85.394958 
	C79.881088,91.633896 72.040909,93.806190 63.622814,93.935379 
	C48.645229,94.165230 33.661575,93.999817 18.197025,93.997894 
z"/>
<path fill="#000000" opacity="1.000000" stroke="none" 
	d="
M282.731689,166.675339 
	C274.792206,165.729507 267.120667,165.190125 260.173096,161.086670 
	C245.186295,152.234894 237.253891,139.227219 236.005875,122.000328 
	C235.036118,108.614159 237.309402,96.150299 245.937302,85.285583 
	C253.631760,75.596283 263.259674,69.717484 275.640839,67.921776 
	C291.283875,65.652977 303.971039,71.130081 314.496307,82.113503 
	C321.960297,89.902390 325.947418,99.709518 326.876465,110.334343 
	C328.045776,123.706818 326.210510,136.543945 317.767578,147.821487 
	C309.374756,159.032074 298.636536,165.518509 284.498749,166.024765 
	C284.021606,166.041840 283.551910,166.268112 282.731689,166.675339 
z"/>
</svg>