<svg width="16" height="16" viewBox="0 0 16 16" fill="none" xmlns="http://www.w3.org/2000/svg">
<path d="M7.99964 5.33363C6.46285 5.33363 5.21704 6.52794 5.21704 8.0012C5.21704 9.47446 6.46285 10.6688 7.99964 10.6688C9.53643 10.6688 10.7822 9.47446 10.7822 8.0012C10.7822 6.52794 9.53643 5.33363 7.99964 5.33363ZM6.60834 8.0012C6.60834 7.26458 7.23124 6.66742 7.99964 6.66742C8.76803 6.66742 9.39094 7.26458 9.39094 8.0012C9.39094 8.73782 8.76803 9.33498 7.99964 9.33498C7.23124 9.33498 6.60834 8.73782 6.60834 8.0012Z" fill="white"/>
<path d="M11.6424 3.19625C11.1068 3.28951 10.5933 2.95057 10.4956 2.43921L10.1342 0.550866C10.0983 0.363216 9.94726 0.214819 9.7518 0.175126C9.18006 0.0590332 8.59386 0 7.99998 0C7.40575 0 6.81919 0.0591132 6.24713 0.175339C6.05161 0.215073 5.90057 0.363549 5.86474 0.551279L5.50439 2.43929C5.49481 2.48949 5.48092 2.53894 5.4629 2.58707C5.27966 3.07656 4.7154 3.33156 4.20259 3.15664L2.31116 2.51109C2.12317 2.44692 1.91319 2.49732 1.77935 2.63873C0.987895 3.47496 0.388063 4.46168 0.0239321 5.53663C-0.0374938 5.71798 0.0217339 5.9168 0.173942 6.04014L1.70704 7.2826C1.74784 7.31567 1.78576 7.35187 1.82042 7.39083C2.17289 7.78706 2.12213 8.381 1.70703 8.71745L0.173942 9.95989C0.0217339 10.0832 -0.0374938 10.2821 0.0239321 10.4634C0.388063 11.5384 0.987895 12.5251 1.77935 13.3614C1.91319 13.5028 2.12317 13.5532 2.31116 13.489L4.20268 12.8433C4.25303 12.8263 4.30483 12.8129 4.3575 12.8037C4.89322 12.7105 5.40671 13.0494 5.50441 13.5608L5.86474 15.4487C5.90057 15.6365 6.05161 15.785 6.24713 15.8247C6.81919 15.9409 7.40575 16 7.99998 16C8.59386 16 9.18006 15.941 9.7518 15.8249C9.94726 15.7853 10.0983 15.6368 10.1342 15.4491L10.4955 13.5609C10.5052 13.5105 10.519 13.4611 10.5371 13.413C10.7203 12.9235 11.2846 12.6685 11.7974 12.8433L13.6887 13.489C13.8768 13.5532 14.0868 13.5028 14.2206 13.3614C15.0121 12.5251 15.6119 11.5384 15.976 10.4634C16.0375 10.2821 15.9783 10.0832 15.8261 9.95989L14.293 8.71743C14.2521 8.68437 14.2142 8.64817 14.1796 8.6092C13.827 8.21297 13.8778 7.61903 14.293 7.28259L15.8261 6.04014C15.9783 5.9168 16.0375 5.71798 15.976 5.53663C15.6119 4.46168 15.0121 3.47496 14.2206 2.63873C14.0868 2.49732 13.8768 2.44692 13.6887 2.51109L11.7973 3.15667C11.7469 3.17383 11.6951 3.18709 11.6424 3.19625ZM2.43287 3.96842L3.73595 4.41316C4.96718 4.83315 6.32864 4.22303 6.77242 3.03763C6.81603 2.92115 6.84971 2.80115 6.87297 2.67934L7.11982 1.38604C7.40965 1.35135 7.70341 1.33378 7.99998 1.33378C8.29633 1.33378 8.58985 1.35132 8.87948 1.38596L9.12709 2.67986C9.3642 3.91979 10.6054 4.73237 11.891 4.50859C12.0176 4.48654 12.1426 4.45458 12.2639 4.4132L13.5671 3.96842C13.9219 4.41334 14.2169 4.89873 14.4444 5.41341L13.3946 6.26405C12.3918 7.07695 12.2678 8.51559 13.1209 9.47466C13.2046 9.56875 13.2962 9.65621 13.3948 9.73602L14.4444 10.5866C14.2169 11.1013 13.9219 11.5866 13.5671 12.0316L12.2638 11.5868C11.0326 11.1668 9.67133 11.777 9.22754 12.9624C9.18392 13.0789 9.15027 13.1989 9.12699 13.3207L8.87948 14.6141C8.58985 14.6487 8.29633 14.6662 7.99998 14.6662C7.70341 14.6662 7.40965 14.6487 7.11982 14.6139L6.87295 13.3206C6.63602 12.0804 5.39467 11.2676 4.10893 11.4914C3.98228 11.5136 3.85738 11.5454 3.73603 11.5869L2.43287 12.0316C2.07801 11.5866 1.78311 11.1013 1.55567 10.5866L2.60531 9.73599C3.60824 8.92309 3.73222 7.48445 2.87906 6.52538C2.79536 6.43128 2.70375 6.34383 2.60527 6.26402L1.55567 5.41341C1.78311 4.89873 2.07801 4.41334 2.43287 3.96842Z" fill="white"/>
</svg>
