<svg width="30" height="30" viewBox="0 0 30 30" fill="none" xmlns="http://www.w3.org/2000/svg">
<path d="M1 17H0C0 17.5523 0.447716 18 1 18L1 17ZM17 1H18C18 0.4478 17.5523 0 17 0L17 1ZM17 17V18H18V17H17ZM30 17C30 9.8202 24.1798 4 17 4V6C23.0752 6 28 10.9249 28 17H30ZM17 30C24.1798 30 30 24.1797 30 17H28C28 23.0751 23.0752 28 17 28V30ZM17 28C10.9249 28 6 23.0751 6 17H4C4 24.1797 9.8203 30 17 30V28ZM2 17C2 8.7158 8.71572 2 17 2L17 0C7.61116 0 0 7.6112 0 17H2ZM1 18H17V16H1L1 18ZM18 17V1H16V17H18Z" fill="#6236FF"/>
</svg>
