<svg width="16" height="8" viewBox="0 0 16 8" fill="none" xmlns="http://www.w3.org/2000/svg">
<path d="M1.24518 8C0.558588 8 0 7.43683 0 6.74608C0 6.05534 0.558588 5.49305 1.24518 5.49305C1.47765 5.49305 1.70682 5.56151 1.90871 5.68996L1.93553 5.70686L5.05929 3.24169L5.056 3.21547C5.04282 3.13146 5.03529 3.08079 5.03529 3.03011C5.03529 2.33848 5.59341 1.77664 6.28 1.77664C6.96612 1.77664 7.52518 2.33893 7.52518 3.03011C7.52518 3.22125 7.47812 3.41193 7.38588 3.59462L7.37271 3.62174L8.62965 5.21613L8.65929 5.20591C8.78353 5.16724 8.90871 5.14724 9.03341 5.14724C9.27859 5.14724 9.51671 5.21969 9.72188 5.35837L9.75153 5.37704L13.6179 1.75664L13.6061 1.7273C13.5435 1.57395 13.512 1.41482 13.512 1.25258C13.512 0.56184 14.0706 0 14.7572 0C15.4438 0 16 0.561396 16 1.25169C16 1.94288 15.4414 2.50517 14.7548 2.50517C14.5633 2.50517 14.3732 2.45716 14.1911 2.36204L14.1633 2.34826L10.2193 6.04245L10.2268 6.06912C10.2607 6.19313 10.2767 6.29803 10.2767 6.39982C10.2767 7.09012 9.71812 7.65374 9.03153 7.65374C8.34494 7.65374 7.78635 7.08968 7.78635 6.39982C7.78635 6.17135 7.85129 5.95044 7.97976 5.74286L7.99624 5.71575L6.78353 4.17735L6.75247 4.18891C6.60282 4.25158 6.44376 4.2827 6.28 4.2827C5.99623 4.2827 5.71953 4.18446 5.49929 4.00578L5.47153 3.98266L5.42212 3.98355L2.42071 6.35137L2.42965 6.3816C2.47059 6.51583 2.48988 6.63185 2.48988 6.74519C2.48988 7.43683 1.93129 8 1.24518 8ZM1.24518 6.30248C1.00188 6.30248 0.803765 6.50161 0.803765 6.74608C0.803765 6.99189 1.00188 7.19058 1.24518 7.19058C1.48847 7.19058 1.68659 6.99189 1.68659 6.74608C1.68612 6.50161 1.48847 6.30248 1.24518 6.30248ZM9.032 5.95577C8.93224 5.95577 8.84 5.98689 8.76376 6.04689C8.65365 6.13135 8.59059 6.25981 8.59059 6.39938C8.59059 6.64429 8.78871 6.84343 9.032 6.84343C9.27529 6.84343 9.47341 6.64429 9.47341 6.39938C9.47341 6.15446 9.27529 5.95577 9.032 5.95577ZM6.27953 2.58606C6.03624 2.58606 5.83812 2.7852 5.83812 3.03011C5.83812 3.16435 5.89835 3.29059 6.00329 3.37593C6.06635 3.4266 6.17741 3.4595 6.28706 3.4595C6.37365 3.4595 6.49647 3.43949 6.59106 3.34393C6.67435 3.26036 6.72047 3.14879 6.72047 3.03011C6.72047 2.78564 6.52235 2.58606 6.27953 2.58606ZM14.7548 0.808534C14.5115 0.808534 14.3134 1.00633 14.3134 1.25169C14.3134 1.49661 14.5115 1.69574 14.7548 1.69574C14.9981 1.69574 15.1962 1.49661 15.1962 1.25169C15.1967 1.00678 14.9981 0.808534 14.7548 0.808534Z" fill="white"/>
</svg>
