<svg width="20" height="20" viewBox="0 0 20 20" fill="none" xmlns="http://www.w3.org/2000/svg">
<path d="M19.8025 12.63L17.6339 10.975C17.675 10.655 17.7058 10.33 17.7058 10C17.7058 9.67 17.675 9.34502 17.6339 9.025L19.8077 7.36998C20.0029 7.21998 20.0595 6.94998 19.931 6.72999L17.8754 3.26499C17.7469 3.04997 17.4797 2.95997 17.2485 3.04997L14.6893 4.05498C14.16 3.65996 13.5793 3.32499 12.9523 3.06999L12.5669 0.420001C12.5206 0.185016 12.3099 0 12.053 0H7.94188C7.68495 0 7.47422 0.185016 7.43312 0.420001L7.0477 3.06999C6.42077 3.32499 5.84004 3.65499 5.31076 4.05498L2.75157 3.04997C2.52031 2.96499 2.25307 3.04997 2.12463 3.26499L0.0689907 6.72999C-0.0594989 6.94501 -0.00293838 7.21501 0.192325 7.36998L2.36094 9.025C2.31985 9.34502 2.28901 9.67 2.28901 10C2.28901 10.33 2.31985 10.655 2.36094 10.975L0.192325 12.63C-0.00293838 12.78 -0.0594989 13.05 0.0689907 13.27L2.12458 16.735C2.25307 16.95 2.52026 17.04 2.75152 16.95L5.31071 15.945C5.84004 16.34 6.42072 16.675 7.04765 16.93L7.43307 19.58C7.47417 19.815 7.6849 20 7.94183 20H12.053C12.3099 20 12.5206 19.815 12.5617 19.58L12.9471 16.93C13.5741 16.675 14.1548 16.345 14.6841 15.945L17.2433 16.95C17.4745 17.035 17.7418 16.95 17.8702 16.735L19.9258 13.27C20.0543 13.055 19.9978 12.785 19.8025 12.63ZM9.99742 13.5C8.00865 13.5 6.40015 11.935 6.40015 10C6.40015 8.065 8.00865 6.50003 9.99742 6.50003C11.9862 6.50003 13.5947 8.06504 13.5947 10C13.5947 11.9351 11.9862 13.5 9.99742 13.5Z" fill="#686868"/>
</svg>
