<svg width="30" height="30" viewBox="0 0 30 30" fill="none" xmlns="http://www.w3.org/2000/svg">
<path d="M21.8295 5.99297C20.8252 6.16783 19.8624 5.53232 19.6792 4.57352L19.0016 1.03287C18.9343 0.68103 18.6511 0.402786 18.2846 0.328361C17.2126 0.110687 16.1135 0 15 0C13.8858 0 12.786 0.110837 11.7134 0.328761C11.3468 0.403261 11.0636 0.681655 10.9964 1.03365L10.3207 4.57367C10.3028 4.6678 10.2767 4.76051 10.2429 4.85076C9.89935 5.76855 8.84137 6.24668 7.87986 5.9187L4.33343 4.70829C3.98094 4.58797 3.58724 4.68248 3.33628 4.94762C1.8523 6.51555 0.727619 8.36565 0.0448727 10.3812C-0.070301 10.7212 0.040751 11.094 0.326142 11.3253L3.20071 13.6549C3.2772 13.7169 3.34831 13.7848 3.41329 13.8578C4.07418 14.6007 3.97898 15.7144 3.20068 16.3452L0.326142 18.6748C0.040751 18.9061 -0.070301 19.2789 0.0448727 19.6189C0.727619 21.6344 1.8523 23.4846 3.33628 25.0526C3.58724 25.3177 3.98094 25.4122 4.33343 25.2919L7.88002 24.0813C7.97443 24.0492 8.07155 24.0242 8.17031 24.007C9.17479 23.8322 10.1376 24.4676 10.3208 25.4265L10.9964 28.9664C11.0636 29.3185 11.3468 29.5969 11.7134 29.6714C12.786 29.8892 13.8858 30 15 30C16.1135 30 17.2126 29.8895 18.2846 29.6716C18.6511 29.5974 18.9343 29.319 19.0016 28.9671L19.6791 25.4267C19.6972 25.3322 19.7232 25.2396 19.757 25.1494C20.1006 24.2316 21.1586 23.7534 22.1201 24.0813L25.6664 25.2919C26.0191 25.4122 26.4127 25.3177 26.6637 25.0526C28.1478 23.4846 29.2724 21.6344 29.9551 19.6189C30.0704 19.2789 29.9592 18.9061 29.6738 18.6748L26.7993 16.3452C26.7226 16.2832 26.6517 16.2153 26.5867 16.1422C25.9257 15.3993 26.0209 14.2857 26.7993 13.6549L29.6738 11.3253C29.9592 11.094 30.0704 10.7212 29.9551 10.3812C29.2724 8.36565 28.1478 6.51555 26.6637 4.94762C26.4127 4.68248 26.0191 4.58797 25.6664 4.70829L22.1199 5.91875C22.0254 5.95093 21.9284 5.97579 21.8295 5.99297ZM4.56164 7.44079L7.00491 8.27467C9.31347 9.06216 11.8662 7.91817 12.6983 5.69555C12.7801 5.47715 12.8432 5.25215 12.8868 5.02377L13.3497 2.59883C13.8931 2.53378 14.4439 2.50084 15 2.50084C15.5556 2.50084 16.106 2.53373 16.649 2.59868L17.1133 5.02475C17.5579 7.34961 19.8852 8.87319 22.2957 8.4536C22.5331 8.41226 22.7673 8.35234 22.9948 8.27474L25.4384 7.44079C26.1036 8.27502 26.6566 9.18513 27.0832 10.1502L25.1149 11.7451C23.2346 13.2693 23.0021 15.9667 24.6018 17.765C24.7586 17.9414 24.9305 18.1054 25.1152 18.255L27.0832 19.8499C26.6566 20.8149 26.1036 21.725 25.4384 22.5592L22.9946 21.7252C20.6861 20.9377 18.1337 22.0818 17.3016 24.3046C17.2199 24.5229 17.1568 24.748 17.1131 24.9763L16.649 27.4014C16.106 27.4664 15.5556 27.4992 15 27.4992C14.4439 27.4992 13.8931 27.4664 13.3497 27.4011L12.8868 24.9761C12.4425 22.6508 10.115 21.1268 7.70425 21.5464C7.46678 21.5879 7.23259 21.6477 7.00506 21.7255L4.56164 22.5592C3.89626 21.725 3.34333 20.8149 2.91688 19.8499L4.88496 18.255C6.76546 16.7308 6.99792 14.0333 5.39824 12.2351C5.2413 12.0586 5.06952 11.8947 4.88488 11.745L2.91688 10.1502C3.34333 9.18513 3.89626 8.27502 4.56164 7.44079Z" fill="#1A1A1A"/>
</svg>
