<svg width="16" height="11" viewBox="0 0 16 11" fill="none" xmlns="http://www.w3.org/2000/svg">
<path d="M10.9306 7.53309C11.0403 7.63211 11.1034 7.76759 11.1058 7.90978C11.1082 8.05197 11.0498 8.18924 10.9435 8.29143C10.8372 8.39362 10.6916 8.45238 10.5387 8.4548C10.3858 8.45721 10.2381 8.40309 10.1281 8.30432C9.55445 7.79592 8.79242 7.51233 8 7.51233C7.20759 7.51233 6.44556 7.79592 5.87187 8.30432C5.76191 8.40329 5.61418 8.45758 5.46117 8.45524C5.30817 8.45291 5.16244 8.39415 5.05602 8.29187C4.94961 8.1896 4.89124 8.05221 4.89375 7.90991C4.89626 7.76761 4.95944 7.63206 5.0694 7.53309C5.85832 6.83101 6.9081 6.43914 8 6.43914C9.09189 6.43914 10.1417 6.83101 10.9306 7.53309H10.9306ZM8 3.21957C5.98689 3.21224 4.05233 3.94555 2.61825 5.25957C2.50916 5.35937 2.44716 5.49538 2.44589 5.63769C2.44462 5.78 2.50419 5.91696 2.61149 6.01842C2.71879 6.11988 2.86503 6.17755 3.01805 6.17872C3.17106 6.1799 3.31831 6.1245 3.4274 6.02471C4.65006 4.91435 6.29115 4.29276 8 4.29276C9.70885 4.29276 11.3499 4.91435 12.5726 6.02471C12.6817 6.12445 12.8289 6.1798 12.9819 6.1786C13.1349 6.1774 13.2811 6.11974 13.3884 6.0183C13.4957 5.91685 13.5552 5.77994 13.554 5.63766C13.5527 5.49538 13.4908 5.35938 13.3817 5.25957C11.9477 3.94555 10.0131 3.21224 8 3.21957ZM15.8288 2.98412C13.7418 1.07189 10.9297 0 8 0C5.07032 0 2.25823 1.07189 0.171185 2.98412C0.0624046 3.08421 0.000830514 3.22039 8.33989e-06 3.36271C-0.000813835 3.50502 0.0591833 3.64181 0.166801 3.74298C0.274419 3.84415 0.420841 3.90142 0.573858 3.90219C0.726875 3.90295 0.87395 3.84715 0.982731 3.74706C2.85373 2.03359 5.3742 1.07319 8 1.07319C10.6258 1.07319 13.1463 2.03359 15.0173 3.74706C15.0711 3.79662 15.135 3.83583 15.2051 3.86244C15.2753 3.88906 15.3504 3.90256 15.4261 3.90219C15.5019 3.90181 15.5769 3.88755 15.6467 3.86024C15.7165 3.83292 15.7799 3.79308 15.8332 3.74298C15.8865 3.69289 15.9286 3.63352 15.9573 3.56827C15.9859 3.50303 16.0004 3.43317 16 3.36271C15.9996 3.29224 15.9843 3.22254 15.9549 3.15758C15.9255 3.09262 15.8827 3.03368 15.8288 2.98412ZM8.00056 9.39021C7.8294 9.39021 7.66208 9.43742 7.51976 9.52586C7.37744 9.61431 7.26652 9.74001 7.20102 9.88709C7.13551 10.0342 7.11838 10.196 7.15177 10.3521C7.18516 10.5083 7.26758 10.6517 7.38862 10.7643C7.50965 10.8768 7.66385 10.9535 7.83173 10.9845C7.9996 11.0156 8.17361 10.9997 8.33175 10.9387C8.48988 10.8778 8.62504 10.7746 8.72014 10.6423C8.81523 10.5099 8.86599 10.3543 8.86599 10.1951C8.86573 9.98171 8.77447 9.77712 8.61223 9.62623C8.44998 9.47533 8.23001 9.39045 8.00056 9.39021Z" fill="white"/>
</svg>
