<svg width="70" height="66" viewBox="0 0 70 66" fill="none" xmlns="http://www.w3.org/2000/svg">
<path d="M23.4244 33C23.4244 24.1904 24.945 16.3566 27.2866 10.8371C28.4599 8.07162 29.7801 6.02683 31.0931 4.71782C32.394 3.42083 33.5168 3 34.4244 3C35.332 3 36.4548 3.42083 37.7557 4.71782C39.0687 6.02683 40.3889 8.07162 41.5621 10.8371C43.9037 16.3566 45.4244 24.1904 45.4244 33C45.4244 41.8096 43.9037 49.6434 41.5621 55.1629C40.3889 57.9284 39.0687 59.9732 37.7557 61.2822C36.4548 62.5792 35.332 63 34.4244 63C33.5168 63 32.394 62.5792 31.0931 61.2822C29.7801 59.9732 28.4599 57.9284 27.2866 55.1629C24.945 49.6434 23.4244 41.8096 23.4244 33Z" stroke="white" stroke-width="6"/>
<path d="M36.2264 22.5514C44.946 23.8071 52.4831 26.4287 57.6125 29.5331C60.1825 31.0885 62.0183 32.6867 63.1268 34.1728C64.2251 35.6453 64.4816 36.8167 64.3523 37.715C64.2229 38.6133 63.6463 39.6647 62.1772 40.7674C60.6944 41.8804 58.4823 42.8957 55.5778 43.6628C49.781 45.1939 41.8104 45.5824 33.0907 44.3268C24.3711 43.0712 16.834 40.4495 11.7046 37.3452C9.13456 35.7897 7.29881 34.1916 6.19031 32.7054C5.09197 31.2329 4.83547 30.0616 4.96483 29.1633C5.09418 28.265 5.67075 27.2136 7.13992 26.1108C8.6227 24.9978 10.8348 23.9825 13.7393 23.2154C19.5361 21.6844 27.5067 21.2958 36.2264 22.5514Z" stroke="white" stroke-width="6"/>
</svg>
