<svg width="25" height="25" viewBox="0 0 25 25" fill="none" xmlns="http://www.w3.org/2000/svg">
<g clip-path="url(#clip0_1_3115)">
<path d="M21.6562 12.3984C21.6562 7.42969 17.625 3.39844 12.6562 3.39844C7.6875 3.39844 3.65625 7.42969 3.65625 12.3984C3.65625 17.3672 7.6875 21.3984 12.6562 21.3984C17.625 21.3984 21.6562 17.3672 21.6562 12.3984Z" stroke="white" stroke-width="1.5" stroke-miterlimit="10"/>
<path d="M15.2062 16.1484H10.1063C9.78807 16.1482 9.48299 16.0217 9.258 15.7967C9.03301 15.5717 8.9065 15.2666 8.90625 14.9484V9.84844C8.9065 9.53025 9.03301 9.22517 9.258 9.00018C9.48299 8.77519 9.78807 8.64869 10.1063 8.64844H15.2062C15.5244 8.64869 15.8295 8.77519 16.0545 9.00018C16.2795 9.22517 16.406 9.53025 16.4062 9.84844V14.9484C16.406 15.2666 16.2795 15.5717 16.0545 15.7967C15.8295 16.0217 15.5244 16.1482 15.2062 16.1484Z" fill="white" stroke="white" stroke-width="0.046875"/>
</g>
<defs>
<clipPath id="clip0_1_3115">
<rect width="24" height="24" fill="white" transform="translate(0.65625 0.398438)"/>
</clipPath>
</defs>
</svg>
