<svg width="20" height="15" viewBox="0 0 20 15" fill="none" xmlns="http://www.w3.org/2000/svg">
<path d="M14 7.52413C12.0656 7.52413 10.5 5.95981 10.5 4.02704C10.5 2.09428 12.0656 0.529953 14 0.529953C15.9344 0.529953 17.5 2.09428 17.5 4.02704C17.5 5.95981 15.9344 7.52413 14 7.52413ZM11.6 8.5233H11.8594C12.5094 8.83554 13.2312 9.02288 14 9.02288C14.7688 9.02288 15.4875 8.83554 16.1406 8.5233H16.4C18.3875 8.5233 20 10.1345 20 12.1203V13.0196C20 13.847 19.3281 14.5183 18.5 14.5183H9.5C8.67188 14.5183 8 13.847 8 13.0196V12.1203C8 10.1345 9.6125 8.5233 11.6 8.5233ZM5 7.52413C3.34375 7.52413 2 6.1815 2 4.52662C2 2.87175 3.34375 1.52912 5 1.52912C6.65625 1.52912 8 2.87175 8 4.52662C8 6.1815 6.65625 7.52413 5 7.52413ZM3.5 8.5233H3.61875C4.05312 8.67317 4.5125 8.77309 5 8.77309C5.4875 8.77309 5.94688 8.67317 6.38125 8.5233H6.5C7.1375 8.5233 7.725 8.70752 8.24063 9.00415C7.47813 9.82534 7 10.9151 7 12.1203V13.3193C7 13.388 7.01562 13.4536 7.01875 13.5191H1.5C0.671875 13.5191 0 12.8478 0 12.0204C0 10.0876 1.56562 8.5233 3.5 8.5233Z" fill="white"/>
</svg>
