<svg width="12" height="20" viewBox="0 0 12 20" fill="none" xmlns="http://www.w3.org/2000/svg">
<path d="M0 2.40426H1.92V0.485855H3.84V2.40426H5.76V0.485855H7.68V2.43303C9.84 2.67283 11.52 4.49532 11.52 6.72066C11.52 7.96762 10.992 9.11866 10.1376 9.88603C11.2608 10.663 12 11.9675 12 13.4351C12 15.8331 10.08 17.7515 7.68 17.7515V19.6699H5.76V17.7515H3.84V19.6699H1.92V17.7515H0L0.48 15.8331H1.92V4.32266H0V2.40426ZM3.84 11.0371V15.8331H7.68C8.31652 15.8331 8.92697 15.5804 9.37706 15.1307C9.82714 14.681 10.08 14.0711 10.08 13.4351C10.08 12.7991 9.82714 12.1891 9.37706 11.7394C8.92697 11.2897 8.31652 11.0371 7.68 11.0371H3.84ZM3.84 4.32266V9.11866H7.2C7.83652 9.11866 8.44697 8.86602 8.89706 8.41631C9.34714 7.96659 9.6 7.35665 9.6 6.72066C9.6 6.08467 9.34714 5.47473 8.89706 5.02502C8.44697 4.5753 7.83652 4.32266 7.2 4.32266H3.84Z" fill="white"/>
</svg>
