<svg width="25" height="24" viewBox="0 0 25 24" fill="none" xmlns="http://www.w3.org/2000/svg">
<g clip-path="url(#clip0_64_923)">
<path d="M19.875 6.75H4.875C3.63236 6.75 2.625 7.75736 2.625 9V18C2.625 19.2426 3.63236 20.25 4.875 20.25H19.875C21.1176 20.25 22.125 19.2426 22.125 18V9C22.125 7.75736 21.1176 6.75 19.875 6.75Z" stroke="white" stroke-width="1.5" stroke-linejoin="round"/>
<path d="M19.6575 6.74998V5.34373C19.6574 4.99883 19.5812 4.6582 19.4342 4.34615C19.2873 4.0341 19.0734 3.75832 18.8076 3.53849C18.5418 3.31866 18.2308 3.16019 17.8967 3.0744C17.5627 2.98861 17.2138 2.9776 16.875 3.04217L4.53 5.1492C3.9939 5.25136 3.51026 5.53741 3.16249 5.958C2.81472 6.37859 2.62463 6.90736 2.625 7.4531V9.74998" stroke="white" stroke-width="1.5" stroke-linejoin="round"/>
<path d="M17.625 15C17.3283 15 17.0383 14.912 16.7916 14.7472C16.545 14.5824 16.3527 14.3481 16.2392 14.074C16.1256 13.7999 16.0959 13.4983 16.1538 13.2074C16.2117 12.9164 16.3546 12.6491 16.5643 12.4393C16.7741 12.2296 17.0414 12.0867 17.3324 12.0288C17.6233 11.9709 17.9249 12.0006 18.199 12.1142C18.4731 12.2277 18.7074 12.42 18.8722 12.6666C19.037 12.9133 19.125 13.2033 19.125 13.5C19.125 13.8978 18.967 14.2794 18.6857 14.5607C18.4044 14.842 18.0228 15 17.625 15Z" fill="white" stroke="white" stroke-width="0.046875"/>
</g>
<defs>
<clipPath id="clip0_64_923">
<rect width="24" height="24" fill="white" transform="translate(0.375)"/>
</clipPath>
</defs>
</svg>
